<svg width="133" height="37" viewBox="0 0 133 37" fill="none" xmlns="http://www.w3.org/2000/svg">
<mask id="mask0_1_1661" style="mask-type:alpha" maskUnits="userSpaceOnUse" x="0" y="0" width="40" height="37">
<path fill-rule="evenodd" clip-rule="evenodd" d="M22.7986 20.0261C22.7756 20.0491 22.7526 20.0606 22.7295 20.0721L23.8765 21.2192L34.117 10.9778C35.2907 13.3664 35.9499 16.0535 35.9499 18.8947C35.9499 28.822 27.9022 36.8696 17.975 36.8696C8.04766 36.8696 0 28.822 0 18.8947C0 8.96738 8.04766 0.919722 17.975 0.919722C22.2652 0.919722 26.2044 2.42277 29.2947 4.93101L18.4408 15.783L19.6223 16.9646C19.6339 16.9378 19.6492 16.9148 19.6684 16.8956L30.5323 6.03337C30.6547 6.15296 30.7755 6.27428 30.8945 6.3973L20.0328 17.26C20.0098 17.2831 19.9868 17.2946 19.9638 17.3061L20.988 18.3342C20.9995 18.3074 21.0148 18.2844 21.034 18.2652L31.8429 7.458C31.9519 7.59005 32.0591 7.72368 32.1644 7.85886L21.3984 18.6258C21.3754 18.6488 21.3524 18.6603 21.3294 18.6718L22.3881 19.7345C22.3996 19.7077 22.415 19.6847 22.4342 19.6655L33.0304 9.07089C33.1258 9.21687 33.2192 9.36431 33.3105 9.5132L22.7986 20.0261ZM33.0304 9.07089C32.7582 8.65458 32.4692 8.25025 32.1644 7.85886L36.7235 3.29932L37.763 4.33899L33.0304 9.07089ZM31.8429 7.458C31.5407 7.09198 31.2243 6.73813 30.8945 6.3973L35.3578 1.93355L36.3629 2.9387L31.8429 7.458ZM30.5323 6.03337C30.137 5.6474 29.724 5.2795 29.2947 4.93101L33.0255 1.2008L33.8234 0.402824L34.9934 1.57293L30.5323 6.03337ZM33.3105 9.5132L38.1236 4.69961L39.2591 5.83519L34.117 10.9778C33.8704 10.4759 33.6012 9.98731 33.3105 9.5132ZM16.799 25.0326C18.8436 24.5339 20.6773 24.0697 21.1759 23.9201L22.7909 22.3049L17.3552 16.8687L15.6712 18.5491C15.5139 19.1054 15.0536 21.0005 14.6125 22.8459L16.799 25.0326ZM14.2356 24.4558C14.1842 24.675 14.1346 24.8862 14.0869 25.0863C14.0562 25.2168 14.1406 25.3549 14.225 25.4393C14.3094 25.5199 14.4475 25.6042 14.5894 25.5697C14.7306 25.5354 14.8726 25.5009 15.0151 25.4662C15.4146 25.369 15.8182 25.2707 16.2198 25.1746L14.4782 23.4328C14.3932 23.7843 14.3124 24.1289 14.2356 24.4558Z" fill="black"/>
</mask>
<g mask="url(#mask0_1_1661)">
<circle cx="17.975" cy="18.8948" r="17.975" fill="#F5511D"/>
</g>
<path d="M14.6307 25.1647C14.4948 24.752 14.2127 24.8674 14.2127 25.0254C14.0733 25.1647 14.0694 25.5828 13.9335 25.8304C13.852 25.9954 13.7432 26.133 13.6617 26.2981C13.4714 26.7108 13.5801 26.9034 14.0151 26.9309L14.0325 26.932C15.304 27.0142 16.5488 27.0946 17.7936 26.7933C18.6091 26.6007 19.4518 26.6558 20.2945 26.6558C20.4576 26.6558 20.6207 26.6282 20.7022 26.8759C20.4032 27.1235 20.0498 27.2885 19.7236 27.4536C19.2887 27.6737 18.8538 27.9489 18.4188 28.1965L18.4188 28.1965C18.3644 28.2515 18.2829 28.334 18.2829 28.4166C18.2829 28.5541 18.4188 28.5817 18.5276 28.5817C18.9081 28.5817 19.2887 28.5817 19.6693 28.4991C20.1314 28.3891 20.5663 28.5266 21.0556 28.7467C20.7566 28.9943 20.4848 29.1594 20.2401 29.352C20.0227 29.5171 20.077 29.6547 20.2945 29.7647C20.4304 29.8197 20.5935 29.8748 20.7566 29.8748C21.3547 29.9023 21.9799 29.7647 22.5779 29.9023C22.6595 29.9023 22.7682 29.8472 22.7682 29.7372C22.7682 29.6271 22.7138 29.5446 22.6323 29.5171C22.4964 29.4621 22.3604 29.4896 22.2245 29.4896C21.708 29.4621 21.1916 29.5721 20.6207 29.4621C20.8382 29.1594 21.1372 29.1319 21.3275 28.9393C21.4362 28.8293 21.5993 28.7467 21.5449 28.5541C21.4906 28.3891 21.3547 28.3891 21.2187 28.3616C20.5663 28.169 19.8867 27.9489 19.1528 28.1965C19.5062 27.8388 19.9139 27.6462 20.3217 27.4536C20.5663 27.3436 20.811 27.206 21.0013 27.0134C21.2731 26.7658 21.2187 26.5182 20.8653 26.4081C20.7294 26.3531 20.5663 26.3531 20.4032 26.3531C19.3702 26.2981 18.3373 26.3531 17.3043 26.5732C16.1898 26.7933 15.1296 26.7383 14.0422 26.5182C13.9879 26.2981 14.151 26.2155 14.2054 26.078C14.3141 25.7753 14.7123 25.4949 14.6307 25.1647Z" fill="white"/>
<path d="M60.4837 20.8047C60.4075 22.0658 60.0647 23.1829 59.4554 24.1562C58.846 25.1211 57.9954 25.8786 56.9036 26.4287C55.8203 26.9788 54.5169 27.2539 52.9934 27.2539C51.3938 27.2539 50.0185 26.8942 48.8675 26.1748C47.7249 25.4469 46.8447 24.4186 46.2268 23.0898C45.609 21.7526 45.3001 20.1657 45.3001 18.3291V17.1992C45.3001 15.3626 45.6175 13.7757 46.2522 12.4385C46.8955 11.1012 47.7926 10.0687 48.9436 9.34082C50.1031 8.61296 51.4615 8.24902 53.0188 8.24902C54.5761 8.24902 55.888 8.53678 56.9544 9.1123C58.0292 9.67936 58.8587 10.458 59.4427 11.4482C60.0351 12.4385 60.3906 13.5684 60.5091 14.8379H56.5227C56.4466 13.7546 56.1503 12.9336 55.6341 12.375C55.1263 11.8079 54.2545 11.5244 53.0188 11.5244C51.7832 11.5244 50.8606 11.9772 50.2513 12.8828C49.6503 13.7884 49.3499 15.2188 49.3499 17.1738V18.3291C49.3499 20.2419 49.6249 21.6637 50.1751 22.5947C50.7337 23.5257 51.6731 23.9912 52.9934 23.9912C54.1529 23.9912 55.0078 23.7288 55.5579 23.2041C56.108 22.6709 56.4254 21.8711 56.51 20.8047H60.4837ZM66.5013 27H62.6673V13.2637H66.2727L66.3997 14.9014C66.7298 14.3089 67.1487 13.8477 67.6565 13.5176C68.1643 13.179 68.7526 13.0098 69.4212 13.0098C69.6158 13.0098 69.819 13.0267 70.0305 13.0605C70.2506 13.0859 70.4283 13.124 70.5638 13.1748L70.513 16.8691C70.3268 16.8438 70.1025 16.8226 69.8401 16.8057C69.5862 16.7803 69.3619 16.7676 69.1673 16.7676C67.8046 16.7676 66.916 17.2119 66.5013 18.1006V27ZM78.6507 27.2539C77.2034 27.2539 75.9635 26.9535 74.9309 26.3525C73.9069 25.7516 73.1197 24.9476 72.5696 23.9404C72.0279 22.9333 71.7571 21.8203 71.7571 20.6016V20.1064C71.7571 18.7354 72.0152 17.5166 72.5315 16.4502C73.0563 15.3838 73.8011 14.5459 74.7659 13.9365C75.7307 13.3187 76.8818 13.0098 78.219 13.0098C80.208 13.0098 81.7229 13.6276 82.7639 14.8633C83.805 16.0905 84.3255 17.724 84.3255 19.7637V21.3887H75.6546C75.79 22.2266 76.137 22.8994 76.6956 23.4072C77.2626 23.9066 77.9947 24.1562 78.8919 24.1562C79.5436 24.1562 80.1487 24.0378 80.7073 23.8008C81.2744 23.5553 81.761 23.1745 82.1673 22.6582L84.0208 24.7783C83.5891 25.3962 82.9205 25.9632 82.0149 26.4795C81.1093 26.9958 79.9879 27.2539 78.6507 27.2539ZM78.1936 16.0947C77.4404 16.0947 76.8649 16.3486 76.4671 16.8564C76.0693 17.3558 75.8069 18.0075 75.68 18.8115H80.555V18.5068C80.5465 17.8044 80.3518 17.2288 79.971 16.7803C79.5986 16.3232 79.0061 16.0947 78.1936 16.0947ZM93.6819 17.8467C93.6819 17.2288 93.5296 16.738 93.2249 16.374C92.9202 16.0101 92.4335 15.8281 91.7649 15.8281C91.1809 15.8281 90.7281 15.9678 90.4065 16.2471C90.0849 16.5264 89.9241 16.9157 89.9241 17.415H86.0901C86.0901 16.6025 86.3313 15.8662 86.8138 15.2061C87.2962 14.5374 87.9775 14.0042 88.8577 13.6064C89.7379 13.2087 90.7747 13.0098 91.968 13.0098C93.0345 13.0098 93.9866 13.1917 94.8245 13.5557C95.6624 13.9111 96.3225 14.4486 96.805 15.168C97.2874 15.8874 97.5286 16.7887 97.5286 17.8721V23.6104C97.5286 24.4229 97.5751 25.0661 97.6682 25.54C97.7698 26.014 97.9095 26.4287 98.0872 26.7842V27H94.2278C94.0755 26.6784 93.9527 26.2764 93.8596 25.7939C93.5042 26.2002 93.0471 26.5472 92.4886 26.835C91.9384 27.1143 91.2571 27.2539 90.4446 27.2539C89.5729 27.2539 88.7815 27.0804 88.0706 26.7334C87.3681 26.3779 86.8095 25.8913 86.3948 25.2734C85.9801 24.6471 85.7727 23.932 85.7727 23.1279C85.7727 21.6891 86.3059 20.5762 87.3723 19.7891C88.4388 18.9935 90.0257 18.5957 92.1331 18.5957H93.6819V17.8467ZM91.2952 24.3467C91.8876 24.3467 92.387 24.2197 92.7932 23.9658C93.208 23.7035 93.5042 23.4157 93.6819 23.1025V20.8047H92.2473C91.3164 20.8047 90.6435 21.0078 90.2288 21.4141C89.8141 21.8118 89.6067 22.2943 89.6067 22.8613C89.6067 23.293 89.7591 23.6484 90.0638 23.9277C90.3684 24.207 90.7789 24.3467 91.2952 24.3467ZM107.139 16.0566H104.816V22.709C104.816 23.2676 104.926 23.64 105.146 23.8262C105.374 24.0124 105.73 24.1055 106.212 24.1055C106.441 24.1055 106.644 24.097 106.822 24.0801C106.999 24.0632 107.152 24.042 107.279 24.0166L107.266 26.9111C106.953 27.0127 106.61 27.0931 106.238 27.1523C105.874 27.2201 105.463 27.2539 105.006 27.2539C103.77 27.2539 102.789 26.9365 102.061 26.3018C101.341 25.667 100.982 24.6133 100.982 23.1406V16.0566H99.0266V13.2637H100.982V9.87402H104.816V13.2637H107.139V16.0566ZM108.256 20.0049C108.256 18.6676 108.51 17.4743 109.018 16.4248C109.526 15.3669 110.266 14.5332 111.24 13.9238C112.213 13.3145 113.394 13.0098 114.782 13.0098C116.186 13.0098 117.376 13.3145 118.349 13.9238C119.331 14.5332 120.071 15.3669 120.571 16.4248C121.078 17.4743 121.332 18.6676 121.332 20.0049V20.2715C121.332 21.6003 121.078 22.7936 120.571 23.8516C120.071 24.901 119.335 25.7305 118.362 26.3398C117.388 26.9492 116.203 27.2539 114.807 27.2539C113.41 27.2539 112.221 26.9492 111.24 26.3398C110.266 25.7305 109.526 24.901 109.018 23.8516C108.51 22.7936 108.256 21.6003 108.256 20.2715V20.0049ZM112.103 20.2715C112.103 20.9909 112.187 21.6468 112.357 22.2393C112.526 22.8317 112.81 23.3014 113.207 23.6484C113.605 23.9954 114.138 24.1689 114.807 24.1689C115.797 24.1689 116.491 23.7923 116.889 23.0391C117.295 22.2773 117.498 21.3548 117.498 20.2715V20.0049C117.498 19.3024 117.409 18.6549 117.232 18.0625C117.062 17.4701 116.779 16.9961 116.381 16.6406C115.992 16.2767 115.459 16.0947 114.782 16.0947C114.121 16.0947 113.597 16.2767 113.207 16.6406C112.818 16.9961 112.534 17.4701 112.357 18.0625C112.187 18.6549 112.103 19.3024 112.103 20.0049V20.2715ZM127.363 27H123.529V13.2637H127.134L127.261 14.9014C127.591 14.3089 128.01 13.8477 128.518 13.5176C129.026 13.179 129.614 13.0098 130.283 13.0098C130.477 13.0098 130.68 13.0267 130.892 13.0605C131.112 13.0859 131.29 13.124 131.425 13.1748L131.374 16.8691C131.188 16.8438 130.964 16.8226 130.701 16.8057C130.448 16.7803 130.223 16.7676 130.029 16.7676C128.666 16.7676 127.777 17.2119 127.363 18.1006V27Z" fill="#F5511D"/>
</svg>
